<svg xmlns="http://www.w3.org/2000/svg" viewBox="0 0 512 512" width="512" height="512">
  <!-- Background -->
  <rect x="96" y="96" width="320" height="320" rx="72" ry="72" fill="oklch(0.9821 0 0)" stroke="oklch(0.8822 0 0)" stroke-width="1"/>

  <!-- Column headers -->
  <rect x="162" y="184" width="52" height="6" rx="3" fill="oklch(0.9200 0.0651 74.3695)"/>
  <rect x="230" y="184" width="52" height="6" rx="3" fill="oklch(0.9200 0.0651 74.3695)"/>
  <rect x="298" y="184" width="52" height="6" rx="3" fill="oklch(0.9200 0.0651 74.3695)"/>

  <!-- Backlog: muted -->
  <rect x="162" y="200" width="52" height="26" rx="5" fill="oklch(0.9521 0 0)"/>
  <rect x="162" y="232" width="52" height="20" rx="5" fill="oklch(0.9521 0 0)"/>
  <rect x="162" y="258" width="52" height="22" rx="5" fill="oklch(0.9521 0 0)"/>

  <!-- In Progress: primary accent -->
  <rect x="230" y="200" width="52" height="22" rx="5" fill="oklch(0.4341 0.0392 41.9938)"/>
  <rect x="230" y="228" width="52" height="28" rx="5" fill="oklch(0.4341 0.0392 41.9938)"/>

  <!-- Done: card bg with border -->
  <rect x="298" y="200" width="52" height="20" rx="5" fill="oklch(0.9911 0 0)" stroke="oklch(0.8822 0 0)" stroke-width="1"/>
  <rect x="298" y="226" width="52" height="24" rx="5" fill="oklch(0.9911 0 0)" stroke="oklch(0.8822 0 0)" stroke-width="1"/>
  <rect x="298" y="256" width="52" height="18" rx="5" fill="oklch(0.9911 0 0)" stroke="oklch(0.8822 0 0)" stroke-width="1"/>
</svg>