<svg xmlns="http://www.w3.org/2000/svg" viewBox="0 0 512 512" width="512" height="512">
  <!-- Background -->
  <rect x="96" y="96" width="320" height="320" rx="72" ry="72" fill="oklch(0.1776 0 0)" stroke="oklch(0.2351 0.0115 91.7467)" stroke-width="1"/>

  <!-- Column headers -->
  <rect x="162" y="184" width="52" height="6" rx="3" fill="oklch(0.3163 0.0190 63.6992)"/>
  <rect x="230" y="184" width="52" height="6" rx="3" fill="oklch(0.3163 0.0190 63.6992)"/>
  <rect x="298" y="184" width="52" height="6" rx="3" fill="oklch(0.3163 0.0190 63.6992)"/>

  <!-- Backlog: muted -->
  <rect x="162" y="200" width="52" height="26" rx="5" fill="oklch(0.2520 0 0)"/>
  <rect x="162" y="232" width="52" height="20" rx="5" fill="oklch(0.2520 0 0)"/>
  <rect x="162" y="258" width="52" height="22" rx="5" fill="oklch(0.2520 0 0)"/>

  <!-- In Progress: primary accent -->
  <rect x="230" y="200" width="52" height="22" rx="5" fill="oklch(0.9247 0.0524 66.1732)"/>
  <rect x="230" y="228" width="52" height="28" rx="5" fill="oklch(0.9247 0.0524 66.1732)"/>

  <!-- Done: card bg, subtlest -->
  <rect x="298" y="200" width="52" height="20" rx="5" fill="oklch(0.2134 0 0)"/>
  <rect x="298" y="226" width="52" height="24" rx="5" fill="oklch(0.2134 0 0)"/>
  <rect x="298" y="256" width="52" height="18" rx="5" fill="oklch(0.2134 0 0)"/>
</svg>